ply
format ascii 1.0
comment tiny cylinder fixture, 60 pts, rgb + reflectance scalar
element vertex 60
property float x
property float y
property float z
property uchar red
property uchar green
property uchar blue
property float reflectance
end_header
0.300000 0.000000 0.000000 0 0 0 0.0000
0.285317 0.092705 0.025424 13 29 47 0.0100
0.242705 0.176336 0.050847 26 58 94 0.0200
0.176336 0.242705 0.076271 39 87 141 0.0300
0.092705 0.285317 0.101695 52 116 188 0.0400
0.000000 0.300000 0.127119 65 145 235 0.0500
-0.092705 0.285317 0.152542 78 174 26 0.0600
-0.176336 0.242705 0.177966 91 203 73 0.0700
-0.242705 0.176336 0.203390 104 232 120 0.0800
-0.285317 0.092705 0.228814 117 5 167 0.0900
-0.300000 0.000000 0.254237 130 34 214 0.1000
-0.285317 -0.092705 0.279661 143 63 5 0.1100
-0.242705 -0.176336 0.305085 156 92 52 0.1200
-0.176336 -0.242705 0.330508 169 121 99 0.1300
-0.092705 -0.285317 0.355932 182 150 146 0.1400
-0.000000 -0.300000 0.381356 195 179 193 0.1500
0.092705 -0.285317 0.406780 208 208 240 0.1600
0.176336 -0.242705 0.432203 221 237 31 0.1700
0.242705 -0.176336 0.457627 234 10 78 0.1800
0.285317 -0.092705 0.483051 247 39 125 0.1900
0.300000 -0.000000 0.508475 4 68 172 0.2000
0.285317 0.092705 0.533898 17 97 219 0.2100
0.242705 0.176336 0.559322 30 126 10 0.2200
0.176336 0.242705 0.584746 43 155 57 0.2300
0.092705 0.285317 0.610169 56 184 104 0.2400
0.000000 0.300000 0.635593 69 213 151 0.2500
-0.092705 0.285317 0.661017 82 242 198 0.2600
-0.176336 0.242705 0.686441 95 15 245 0.2700
-0.242705 0.176336 0.711864 108 44 36 0.2800
-0.285317 0.092705 0.737288 121 73 83 0.2900
-0.300000 0.000000 0.762712 134 102 130 0.3000
-0.285317 -0.092705 0.788136 147 131 177 0.3100
-0.242705 -0.176336 0.813559 160 160 224 0.3200
-0.176336 -0.242705 0.838983 173 189 15 0.3300
-0.092705 -0.285317 0.864407 186 218 62 0.3400
0.000000 -0.300000 0.889831 199 247 109 0.3500
0.092705 -0.285317 0.915254 212 20 156 0.3600
0.176336 -0.242705 0.940678 225 49 203 0.3700
0.242705 -0.176336 0.966102 238 78 250 0.3800
0.285317 -0.092705 0.991525 251 107 41 0.3900
0.300000 -0.000000 1.016949 8 136 88 0.4000
0.285317 0.092705 1.042373 21 165 135 0.4100
0.242705 0.176336 1.067797 34 194 182 0.4200
0.176336 0.242705 1.093220 47 223 229 0.4300
0.092705 0.285317 1.118644 60 252 20 0.4400
0.000000 0.300000 1.144068 73 25 67 0.4500
-0.092705 0.285317 1.169492 86 54 114 0.4600
-0.176336 0.242705 1.194915 99 83 161 0.4700
-0.242705 0.176336 1.220339 112 112 208 0.4800
-0.285317 0.092705 1.245763 125 141 255 0.4900
-0.300000 0.000000 1.271186 138 170 46 0.5000
-0.285317 -0.092705 1.296610 151 199 93 0.5100
-0.242705 -0.176336 1.322034 164 228 140 0.5200
-0.176336 -0.242705 1.347458 177 1 187 0.5300
-0.092705 -0.285317 1.372881 190 30 234 0.5400
-0.000000 -0.300000 1.398305 203 59 25 0.5500
0.092705 -0.285317 1.423729 216 88 72 0.5600
0.176336 -0.242705 1.449153 229 117 119 0.5700
0.242705 -0.176336 1.474576 242 146 166 0.5800
0.285317 -0.092705 1.500000 255 175 213 0.5900
